<svg width="30" height="25" viewBox="0 0 30 25" fill="none" xmlns="http://www.w3.org/2000/svg">
<path d="M18 17C19.654 17 21 15.654 21 14V3C21 1.346 19.654 0 18 0H3C1.346 0 0 1.346 0 3V14C0 15.654 1.346 17 3 17H5V20.5C5 20.692 5.11 20.867 5.283 20.951C5.352 20.984 5.427 21 5.5 21C5.611 21 5.722 20.963 5.813 20.891L10.676 17H18ZM27 4H22.5C22.224 4 22 4.224 22 4.5V14C22 16.206 20.206 18 18 18H11.575C11.409 18 11.253 18.083 11.16 18.221L10.132 19.748C9.982 19.972 10.036 20.275 10.255 20.433C10.771 20.804 11.374 21 12 21H19.324L24.187 24.891C24.278 24.963 24.388 25 24.5 25C24.573 25 24.647 24.984 24.717 24.951C24.89 24.868 25 24.693 25 24.5V21H27C28.654 21 30 19.654 30 18V7C30 5.346 28.654 4 27 4Z" fill="#F20D59"/>
</svg>
