<svg width="26" height="30" viewBox="0 0 26 30" fill="none" xmlns="http://www.w3.org/2000/svg">
<path d="M3 0H23C23.663 0 24.2989 0.263392 24.7678 0.732233C25.2366 1.20107 25.5 1.83696 25.5 2.5V5C25.5 5.33152 25.3683 5.64946 25.1339 5.88388C24.8995 6.1183 24.5815 6.25 24.25 6.25H1.75C1.41848 6.25 1.10054 6.1183 0.866116 5.88388C0.631696 5.64946 0.5 5.33152 0.5 5V2.5C0.5 1.83696 0.763392 1.20107 1.23223 0.732233C1.70107 0.263392 2.33696 0 3 0Z" fill="#F20D59"/>
<path fill-rule="evenodd" clip-rule="evenodd" d="M2.37512 8.125H23.6251C23.7909 8.125 23.9499 8.19085 24.0671 8.30806C24.1843 8.42527 24.2501 8.58424 24.2501 8.75V25.625C24.2501 26.7853 23.7892 27.8981 22.9687 28.7186C22.1482 29.5391 21.0354 30 19.8751 30H6.12512C4.9648 30 3.852 29.5391 3.03153 28.7186C2.21106 27.8981 1.75012 26.7853 1.75012 25.625V8.75C1.75012 8.58424 1.81597 8.42527 1.93318 8.30806C2.05039 8.19085 2.20936 8.125 2.37512 8.125ZM19.0466 20.0052C19.1769 19.8749 19.2501 19.6981 19.2501 19.5137V16.7362C19.2501 16.5519 19.1769 16.3751 19.0466 16.2448C18.9162 16.1145 18.7394 16.0413 18.5551 16.0413H15.7089C15.5431 16.0413 15.3841 15.9754 15.2669 15.8582C15.1497 15.741 15.0839 15.582 15.0839 15.4162V12.5688C15.0835 12.3846 15.0102 12.2082 14.8799 12.0781C14.7496 11.9481 14.573 11.875 14.3889 11.875H11.6114C11.4273 11.875 11.2507 11.9481 11.1204 12.0781C10.9901 12.2082 10.9167 12.3846 10.9164 12.5688V15.4162C10.9164 15.582 10.8505 15.741 10.7333 15.8582C10.6161 15.9754 10.4571 16.0413 10.2914 16.0413H7.44512C7.2608 16.0413 7.08402 16.1145 6.95368 16.2448C6.82334 16.3751 6.75012 16.5519 6.75012 16.7362V19.5137C6.75012 19.6981 6.82334 19.8749 6.95368 20.0052C7.08402 20.1355 7.2608 20.2087 7.44512 20.2087H10.2914C10.4571 20.2087 10.6161 20.2746 10.7333 20.3918C10.8505 20.509 10.9164 20.668 10.9164 20.8337V23.68C10.9164 23.8643 10.9896 24.0411 11.1199 24.1714C11.2503 24.3018 11.427 24.375 11.6114 24.375H14.3889C14.5732 24.375 14.75 24.3018 14.8803 24.1714C15.0106 24.0411 15.0839 23.8643 15.0839 23.68V20.8337C15.0839 20.668 15.1497 20.509 15.2669 20.3918C15.3841 20.2746 15.5431 20.2087 15.7089 20.2087H18.5551C18.7394 20.2087 18.9162 20.1355 19.0466 20.0052Z" fill="#F20D59"/>
</svg>
