<svg width="1480" height="630" viewBox="0 0 1480 630" fill="none" xmlns="http://www.w3.org/2000/svg">
<path opacity="0.1" d="M630 396.426C629.778 374.394 625.936 352.442 618.538 330.943C593.332 255.643 528.091 175.26 439.631 110.395C377.46 64.8359 309.892 31.4517 244.236 13.8561C209.926 4.65737 176.698 7.7237e-06 145.486 6.3594e-06C92.9824 4.06439e-06 56.344 7.18895 33.5098 21.9727C10.3792 36.9787 -2.62499e-06 60.0529 -4.23167e-06 96.8093C-5.20986e-06 119.188 3.57339 144.397 7.71022 173.588C12.7515 209.272 18.4897 249.71 18.4897 293.472C18.4897 301.414 18.297 309.763 17.9114 318.275C16.4139 351.718 12.2919 384.155 8.30331 415.491C4.03302 449.039 -2.10135e-05 480.732 -2.22371e-05 508.725C-2.434e-05 556.835 12.2029 586.769 39.5446 605.843C62.9718 622.125 97.6234 630 145.486 630C194.065 630.042 242.537 627.036 290.231 621.023C386.09 608.848 467.196 584.991 524.8 552.032C594.577 512.116 630 459.755 630 396.426Z" fill="url(#paint0_linear)"/>
<path opacity="0.15" d="M1351.78 630C1347.86 630 1343.82 629.896 1339.75 629.687C1298.68 627.596 1251.05 615.056 1198.2 592.652C1117.7 558.438 1033.26 504.433 960.435 440.593C890.092 378.938 838.533 315.193 811.324 256.151C797.175 225.48 790 196.638 790 170.44C790 132.067 808.192 99.8499 844.057 74.6653C900.378 35.1329 999.793 11.9653 1147.99 3.70975C1208.02 0.38665 1268.34 0 1308.45 0C1324.43 0 1339.85 0.0731501 1351.53 0.1254L1366.93 0.209C1383.31 0.30305 1398.78 0.386651 1413.1 0.386651C1441.98 0.386651 1460.95 4.01281 1471.04 11.495C1473.45 13.1627 1475.47 15.3097 1476.98 17.7973C1478.49 20.2849 1479.46 23.0578 1479.82 25.9369C1482.56 47.9342 1454.29 82.2416 1418.5 125.672C1381.67 170.356 1335.84 225.992 1312.17 284.418C1301.36 311.076 1295.86 336.773 1295.86 360.766C1295.86 449.079 1354.62 514.496 1393.5 557.78C1415.95 582.766 1432.16 600.824 1428.24 612.998C1424.42 624.911 1401.54 630 1351.78 630Z" fill="url(#paint1_linear)"/>
<defs>
<linearGradient id="paint0_linear" x1="630" y1="-2.53364e-05" x2="-93.619" y2="137.572" gradientUnits="userSpaceOnUse">
<stop offset="0.424171" stop-color="white" stop-opacity="0"/>
<stop offset="1" stop-color="white"/>
</linearGradient>
<linearGradient id="paint1_linear" x1="790" y1="0" x2="1598.12" y2="376.384" gradientUnits="userSpaceOnUse">
<stop stop-color="white" stop-opacity="0"/>
<stop offset="1" stop-color="white"/>
</linearGradient>
</defs>
</svg>
